# xmcd
#
# Track frame offsets:
#	150
#	19500
#	34800
#	52800
#	68400
#	82350
#	98703
#	120003
#	133503
#
# Disc length: 2110 seconds
#
# Revision: 1
# Processed by: cddbd v1.5.2PL0 Copyright (c) Steve Scherf et al.
# Submitted via: audiograbber 1.83.01
#
DISCID=63083c09
DTITLE=Count To Fire - Songs That Remind Me Of You
DYEAR=2008
DGENRE=Country
TTITLE0=Endless Sea
TTITLE1=Just To Be With You
TTITLE2=Caroline
TTITLE3=Dark Days
TTITLE4=Rain Coat
TTITLE5=Sing Me A Song
TTITLE6=Be The First
TTITLE7=Waiting On A Ghost
TTITLE8=Trapped Inside A Box
EXTD=
EXTT0=
EXTT1=
EXTT2=
EXTT3=
EXTT4=
EXTT5=
EXTT6=
EXTT7=
EXTT8=
PLAYORDER=
